<svg width="115" height="166" viewBox="0 0 115 166" fill="none" xmlns="http://www.w3.org/2000/svg">
    <path fill-rule="evenodd" clip-rule="evenodd" d="M114.923 4.03239C114.923 1.80536 113.118 0 110.891 0L35.6194 -4.08149e-06C33.3924 -4.19611e-06 31.5871 1.80536 31.5871 4.03239L31.587 31.587L110.891 31.587C113.118 31.587 114.923 29.7817 114.923 27.5547V4.03239ZM0 35.6194C0 33.3924 1.80536 31.587 4.03239 31.587H31.587V161.968C31.587 164.195 29.7817 166 27.5547 166H4.03239C1.80536 166 0 164.195 0 161.968V35.6194ZM110.891 73.2551C113.118 73.2551 114.923 75.0604 114.923 77.2874V100.81C114.923 103.037 113.118 104.842 110.891 104.842L31.587 104.842L31.5871 73.2551L110.891 73.2551Z" fill="white"/>
    </svg>
    